<?xml version="1.0" standalone="no"?>
<!DOCTYPE svg PUBLIC "-//W3C//DTD SVG 20010904//EN"
 "http://www.w3.org/TR/2001/REC-SVG-20010904/DTD/svg10.dtd">
<svg version="1.0" xmlns="http://www.w3.org/2000/svg"
 width="700.000000pt" height="700.000000pt" viewBox="0 0 700.000000 700.000000"
 preserveAspectRatio="xMidYMid meet">
<metadata>
Created by potrace 1.11, written by Peter Selinger 2001-2013
</metadata>
<g transform="translate(0.000000,700.000000) scale(0.100000,-0.100000)"
fill="#000000" stroke="none">
<path d="M2600 6113 c-8 -3 -51 -18 -95 -33 -44 -16 -253 -90 -465 -165 -212
-75 -410 -146 -440 -157 -73 -26 -466 -166 -655 -233 -82 -29 -253 -90 -380
-135 -126 -45 -279 -100 -339 -121 -133 -47 -157 -64 -192 -130 -27 -52 -21
-113 24 -240 22 -63 86 -242 142 -399 95 -266 161 -452 230 -645 34 -95 122
-344 154 -435 13 -36 74 -207 135 -380 62 -173 120 -337 131 -365 10 -27 33
-90 50 -140 17 -49 42 -119 55 -155 13 -36 37 -103 54 -150 16 -47 86 -245
156 -440 70 -195 136 -382 147 -415 42 -120 94 -167 189 -171 45 -2 82 7 185
43 71 24 138 48 149 53 11 5 34 13 50 18 17 6 82 29 145 52 63 23 189 68 280
100 91 32 230 81 310 110 220 79 439 156 605 215 83 30 209 74 280 100 282
101 442 158 490 174 100 32 167 131 150 220 -4 20 -61 187 -127 371 -66 184
-122 344 -125 355 -2 11 -9 29 -14 40 -4 11 -103 288 -219 615 -116 327 -220
618 -230 645 -24 63 -105 294 -160 450 -23 66 -45 129 -50 140 -5 11 -35 97
-68 190 -205 580 -326 913 -338 933 -19 29 -44 53 -75 71 -24 14 -111 23 -139
14z m-53 -470 c14 -34 43 -114 143 -398 28 -78 78 -218 181 -507 28 -79 77
-217 109 -308 32 -91 67 -190 78 -220 11 -30 57 -156 100 -280 102 -288 259
-728 423 -1188 71 -199 129 -364 129 -366 0 -2 -10 -6 -22 -9 -13 -3 -144 -48
-293 -102 -148 -53 -378 -135 -510 -182 -132 -47 -289 -103 -350 -125 -216
-77 -242 -86 -360 -128 -66 -23 -149 -53 -185 -65 -293 -104 -355 -124 -361
-118 -5 5 -31 73 -60 153 -75 214 -102 290 -159 450 -29 80 -58 163 -65 185
-7 22 -18 51 -23 65 -6 14 -61 167 -122 340 -61 173 -117 331 -125 350 -7 19
-32 89 -55 155 -23 66 -53 149 -66 185 -30 83 -96 269 -229 645 -58 165 -117
329 -130 365 -13 36 -38 106 -55 155 -17 50 -42 119 -55 155 -13 36 -25 71
-27 79 -2 9 36 27 117 56 66 23 127 45 135 48 8 3 157 56 330 117 173 62 416
148 540 192 124 44 263 93 310 110 47 16 103 36 125 45 22 8 110 40 195 70 85
30 189 67 230 83 41 15 79 28 83 29 4 0 15 -16 24 -36z"/>
<path d="M4298 5790 c-94 -27 -119 -66 -208 -330 -10 -30 -73 -210 -140 -400
-275 -780 -266 -747 -241 -822 14 -42 64 -92 112 -112 63 -26 159 -5 205 46
31 33 43 59 85 183 21 60 51 148 67 195 17 47 87 247 157 445 69 197 127 360
128 361 3 3 68 -19 172 -56 44 -16 166 -59 270 -95 105 -37 312 -109 460 -162
571 -200 974 -342 1077 -378 l106 -37 -63 -182 c-81 -234 -308 -877 -345 -981
-16 -44 -76 -217 -135 -385 -59 -168 -133 -379 -165 -470 -92 -260 -170 -481
-283 -805 -145 -413 -169 -480 -172 -483 -2 -2 -185 60 -407 138 -221 78 -477
168 -568 200 -91 32 -199 70 -240 85 -172 62 -197 68 -250 68 -104 0 -181 -80
-182 -187 -1 -57 11 -86 51 -129 35 -38 42 -42 200 -97 75 -26 228 -80 341
-120 113 -39 243 -85 290 -102 47 -16 220 -77 385 -134 165 -58 331 -117 369
-131 132 -50 229 -33 283 48 21 32 101 249 268 729 43 124 105 300 225 640 34
96 65 186 70 200 4 14 35 102 68 195 33 94 77 217 97 275 20 58 92 263 160
455 113 321 308 878 333 950 6 17 32 93 60 170 56 159 59 200 17 270 -32 55
-69 73 -330 164 -110 38 -252 88 -315 111 -63 22 -133 47 -155 54 -22 7 -215
75 -430 151 -656 231 -729 257 -755 265 -14 4 -90 31 -170 60 -432 154 -442
156 -502 140z"/>
</g>
</svg>
